<?xml version="1.0" standalone="no"?>
<!DOCTYPE svg PUBLIC "-//W3C//DTD SVG 20010904//EN"
 "http://www.w3.org/TR/2001/REC-SVG-20010904/DTD/svg10.dtd">
<svg version="1.0" xmlns="http://www.w3.org/2000/svg"
 width="128.000000pt" height="128.000000pt" viewBox="0 0 128.000000 128.000000"
 preserveAspectRatio="xMidYMid meet">
<metadata>
Created by potrace 1.11, written by Peter Selinger 2001-2013
</metadata>
<g transform="translate(0.000000,128.000000) scale(0.100000,-0.100000)"
fill="#000000" stroke="none">
<path d="M670 1180 c-8 -11 -22 -20 -32 -20 -10 0 -18 -4 -18 -10 0 -5 -13
-10 -30 -10 -16 0 -30 -4 -30 -10 0 -5 -8 -10 -18 -10 -10 0 -24 -9 -32 -20
-8 -11 -22 -20 -32 -20 -10 0 -18 -4 -18 -10 0 -5 -9 -10 -20 -10 -11 0 -20
-4 -20 -10 0 -5 -8 -10 -18 -10 -10 0 -24 -9 -32 -20 -8 -11 -20 -20 -28 -20
-7 0 -24 -11 -37 -25 l-25 -24 0 -266 c0 -258 -1 -265 -20 -265 -11 0 -20 -4
-20 -10 0 -5 -9 -10 -20 -10 -11 0 -20 -4 -20 -10 0 -5 -9 -10 -20 -10 -11 0
-20 -4 -20 -10 0 -5 -9 -10 -20 -10 -11 0 -20 -4 -20 -10 0 -5 -9 -10 -20 -10
-11 0 -20 -4 -20 -10 0 -5 -7 -10 -16 -10 -18 0 -44 -23 -44 -40 0 -16 26 -40
42 -40 8 0 20 -9 28 -20 8 -11 21 -20 28 -20 8 0 27 -13 42 -30 15 -16 34 -30
42 -30 7 0 20 -9 28 -20 8 -11 22 -20 32 -20 10 0 18 -4 18 -10 0 -5 8 -10 18
-10 10 0 24 -9 32 -20 8 -11 22 -20 32 -20 10 0 18 -4 18 -10 0 -5 9 -10 20
-10 11 0 20 5 20 10 0 6 9 10 20 10 11 0 20 5 20 10 0 6 9 10 20 10 11 0 20 5
20 10 0 6 9 10 20 10 11 0 20 5 20 10 0 6 9 10 20 10 11 0 20 5 20 10 0 6 9
10 20 10 11 0 20 5 20 10 0 6 9 10 20 10 11 0 20 5 20 10 0 6 9 10 20 10 11 0
20 5 20 10 0 6 9 10 20 10 11 0 20 5 20 10 0 6 9 10 20 10 11 0 20 5 20 10 0
6 5 10 10 10 6 0 10 -9 10 -20 0 -16 7 -20 30 -20 17 0 30 -4 30 -10 0 -15 70
-12 86 4 8 8 14 22 14 30 0 9 5 16 10 16 18 0 11 35 -10 50 -11 8 -20 18 -20
22 0 4 9 8 20 8 11 0 20 5 20 10 0 6 9 10 20 10 11 0 20 5 20 10 0 6 9 10 20
10 11 0 20 5 20 10 0 6 9 10 20 10 11 0 20 5 20 10 0 6 9 10 20 10 11 0 20 5
20 10 0 6 9 10 20 10 11 0 20 5 20 10 0 6 7 10 16 10 8 0 22 7 30 15 13 13 11
19 -20 50 -19 19 -41 35 -48 35 -8 0 -20 9 -28 20 -8 11 -20 20 -28 20 -7 0
-28 16 -47 35 l-35 34 0 106 c0 63 -4 105 -10 105 -6 0 -10 37 -10 90 0 83 1
90 20 90 11 0 20 5 20 10 0 6 -9 10 -20 10 -11 0 -20 5 -20 10 0 6 -4 10 -10
10 -5 0 -10 -9 -10 -20 0 -13 -7 -20 -18 -20 -10 0 -24 -9 -32 -20 -8 -11 -22
-20 -32 -20 -10 0 -18 -4 -18 -10 0 -5 9 -10 20 -10 11 0 20 5 20 10 0 6 9 10
20 10 11 0 20 5 20 10 0 6 5 10 10 10 6 0 10 -18 10 -40 0 -22 -4 -40 -10 -40
-5 0 -10 5 -10 10 0 6 -18 10 -40 10 -22 0 -40 5 -40 10 0 6 -9 10 -20 10 -11
0 -20 3 -20 6 0 11 29 34 42 34 8 0 20 9 28 20 8 11 22 20 32 20 11 0 18 7 18
20 0 13 -7 20 -20 20 -11 0 -20 5 -20 10 0 6 -18 10 -40 10 -22 0 -40 -4 -40
-10 0 -5 -9 -10 -20 -10 -13 0 -20 7 -20 18 0 10 -9 24 -20 32 -11 8 -20 20
-20 28 0 40 -65 56 -90 22z m250 -105 c0 -13 -50 -55 -65 -55 -20 0 -19 6 8
35 19 21 57 34 57 20z m-120 -115 c0 -11 5 -20 10 -20 6 0 10 -33 10 -80 0
-47 -4 -80 -10 -80 -5 0 -10 -9 -10 -20 0 -13 -7 -20 -20 -20 -11 0 -20 -4
-20 -10 0 -5 -9 -10 -19 -10 -11 0 -21 -6 -24 -12 -2 -8 -8 -9 -13 -4 -5 5 -4
11 4 13 14 5 16 43 2 43 -6 0 -10 37 -10 90 0 53 4 90 10 90 6 0 10 -9 10 -20
0 -11 5 -20 10 -20 6 0 10 -9 10 -19 0 -11 6 -22 13 -25 10 -5 10 -7 0 -12 -7
-3 -13 -14 -13 -25 0 -10 -4 -19 -10 -19 -5 0 -10 -9 -10 -20 0 -11 5 -20 10
-20 6 0 10 7 10 16 0 15 23 44 34 44 3 0 6 -9 6 -20 0 -11 5 -20 10 -20 6 0
10 9 10 20 0 11 -4 20 -10 20 -5 0 -10 18 -10 40 0 22 5 40 10 40 6 0 10 9 10
20 0 11 -4 20 -10 20 -5 0 -10 -9 -10 -20 0 -13 -7 -20 -20 -20 -16 0 -20 7
-20 30 0 23 4 30 20 30 11 0 20 5 20 10 0 6 5 10 10 10 6 0 10 -9 10 -20z
m-440 -20 c0 -13 -7 -20 -20 -20 -13 0 -20 7 -20 20 0 13 7 20 20 20 13 0 20
-7 20 -20z m65 -15 c41 -40 42 -45 15 -45 -11 0 -20 5 -20 10 0 6 -9 10 -20
10 -16 0 -20 7 -20 30 0 17 2 30 5 30 3 0 21 -16 40 -35z m-65 -35 c0 -5 14
-10 30 -10 17 0 30 -4 30 -10 0 -5 7 -10 16 -10 36 0 44 -25 44 -134 0 -64 -4
-106 -10 -106 -5 0 -10 -7 -10 -15 0 -20 -45 -65 -65 -65 -8 0 -15 9 -15 20 0
11 -4 20 -10 20 -5 0 -10 9 -10 20 0 11 -4 20 -10 20 -5 0 -10 -9 -10 -20 0
-11 5 -20 10 -20 6 0 10 -9 10 -20 0 -24 -6 -25 -26 -6 -16 17 -19 66 -4 66
14 0 12 37 -2 43 -10 4 -9 8 2 17 11 9 12 13 3 17 -16 6 -18 163 -3 163 6 0
10 9 10 20 0 11 5 20 10 20 6 0 10 -4 10 -10z m306 -4 c18 -19 18 -34 -2 -53
-13 -14 -17 -14 -24 -2 -7 11 -13 9 -29 -10 l-21 -24 -20 23 c-11 13 -23 20
-27 16 -4 -4 -1 -12 7 -17 11 -8 12 -12 3 -16 -7 -2 -13 -22 -13 -43 0 -21 6
-41 13 -44 10 -5 10 -7 0 -12 -15 -7 -17 -44 -3 -44 6 0 10 7 10 16 0 36 72
63 83 32 2 -7 8 -9 13 -5 5 4 2 13 -6 18 -11 8 -12 12 -2 16 6 2 12 13 12 24
0 10 5 19 10 19 6 0 10 -16 10 -35 0 -38 -36 -85 -65 -85 -8 0 -15 -4 -15 -10
0 -5 -9 -10 -20 -10 -11 0 -20 -4 -20 -10 0 -5 -4 -10 -10 -10 -5 0 -10 9 -10
20 0 11 -4 20 -10 20 -6 0 -10 35 -10 86 0 88 10 114 44 114 9 0 16 5 16 10 0
6 9 10 20 10 11 0 20 5 20 10 0 15 29 12 46 -4z m314 -36 c0 -23 -4 -30 -20
-30 -11 0 -20 -4 -20 -10 0 -5 -9 -10 -20 -10 -11 0 -20 -4 -20 -10 0 -5 -9
-10 -20 -10 -11 0 -20 -4 -20 -10 0 -5 -4 -10 -10 -10 -15 0 -12 49 4 66 8 8
22 14 30 14 9 0 16 5 16 10 0 6 9 10 20 10 11 0 20 5 20 10 0 6 9 10 20 10 16
0 20 -7 20 -30z m20 -60 c0 -5 -4 -10 -10 -10 -5 0 -10 -9 -10 -20 0 -11 5
-20 10 -20 15 0 12 -49 -4 -66 -20 -19 -26 -18 -26 6 0 11 5 20 10 20 6 0 10
9 10 20 0 11 -4 20 -10 20 -5 0 -10 -9 -10 -20 0 -11 -4 -20 -10 -20 -5 0 -10
-7 -10 -15 0 -20 -45 -65 -65 -65 -19 0 -21 -75 -2 -84 10 -5 10 -7 0 -12 -15
-7 -17 -44 -3 -44 6 0 10 7 10 15 0 9 11 27 25 40 24 25 55 33 55 15 0 -5 5
-10 10 -10 6 0 10 18 10 40 0 22 5 40 10 40 6 0 10 -18 10 -40 0 -22 -4 -40
-10 -40 -5 0 -10 -9 -10 -20 0 -13 -7 -20 -20 -20 -11 0 -20 -4 -20 -10 0 -5
-9 -10 -20 -10 -11 0 -20 -4 -20 -10 0 -15 -29 -12 -46 4 -10 11 -14 42 -14
120 0 58 3 106 6 106 11 0 34 -29 34 -44 0 -9 5 -16 10 -16 18 0 11 35 -10 50
-11 8 -20 22 -20 32 0 11 7 18 20 18 11 0 20 5 20 10 0 6 9 10 20 10 11 0 20
5 20 10 0 6 9 10 20 10 11 0 20 5 20 10 0 6 5 10 10 10 6 0 10 -4 10 -10z
m-180 -190 c0 -73 -4 -120 -10 -120 -5 0 -10 -12 -10 -26 0 -23 -20 -54 -34
-54 -3 0 -6 36 -6 80 0 47 4 80 10 80 6 0 10 18 10 40 0 22 -4 40 -10 40 -5 0
-10 14 -10 30 0 23 4 30 20 30 11 0 20 5 20 10 0 6 5 10 10 10 6 0 10 -47 10
-120z m-80 0 c0 -73 -2 -80 -20 -80 -11 0 -20 -4 -20 -10 0 -5 -9 -10 -20 -10
-18 0 -20 7 -20 80 l0 80 30 0 c17 0 30 5 30 10 0 6 5 10 10 10 6 0 10 -33 10
-80z m-114 6 c11 -11 14 -44 14 -136 0 -125 -7 -150 -44 -150 -9 0 -16 -4 -16
-10 0 -5 -4 -10 -10 -10 -5 0 -10 18 -10 40 0 22 5 40 10 40 6 0 10 18 10 40
0 22 5 40 10 40 6 0 10 14 10 30 0 17 5 30 10 30 6 0 10 18 10 40 0 22 -4 40
-10 40 -5 0 -10 -18 -10 -40 0 -22 -4 -40 -10 -40 -5 0 -10 -13 -10 -30 0 -16
-4 -30 -10 -30 -5 0 -10 -18 -10 -40 0 -22 -4 -40 -10 -40 -5 0 -10 -18 -10
-40 0 -22 -4 -40 -10 -40 -6 0 -10 52 -10 136 0 140 6 164 44 164 9 0 16 5 16
10 0 15 29 12 46 -4z m-146 -142 c0 -94 -3 -118 -17 -132 -12 -12 -18 -13 -21
-4 -2 6 -12 12 -23 12 -10 0 -19 5 -19 10 0 6 -7 10 -15 10 -9 0 -28 12 -42
26 -21 21 -23 28 -12 36 11 7 11 11 2 15 -15 6 -17 43 -3 43 6 0 10 -9 10 -20
0 -15 7 -20 26 -20 29 0 54 -21 54 -44 0 -9 5 -16 10 -16 6 0 10 -9 10 -20 0
-11 5 -20 10 -20 6 0 10 9 10 20 0 11 -4 20 -10 20 -5 0 -10 9 -10 20 0 11 5
20 10 20 6 0 10 23 10 50 0 43 -3 50 -20 50 -11 0 -20 2 -20 5 0 8 44 54 53
54 4 1 7 -51 7 -115z m560 40 c0 -15 -23 -44 -34 -44 -11 0 -6 31 7 45 16 19
27 19 27 -1z m-320 -54 c0 -5 -4 -10 -10 -10 -5 0 -10 -9 -10 -20 0 -11 -4
-20 -10 -20 -5 0 -10 14 -10 30 0 23 4 30 20 30 11 0 20 -4 20 -10z m180 -36
c0 -7 -27 -34 -34 -34 -3 0 -6 9 -6 20 0 13 7 20 20 20 11 0 20 -3 20 -6z
m-574 -68 c18 -19 18 -26 -2 -26 -15 0 -44 23 -44 34 0 12 32 6 46 -8z m140
-80 c18 -19 18 -26 -2 -26 -15 0 -44 23 -44 34 0 12 32 6 46 -8z m234 -21 c0
-15 -42 -65 -55 -65 -3 0 -5 18 -5 40 0 38 2 40 30 40 20 0 30 -5 30 -15z"/>
<path d="M340 840 c0 -11 5 -20 10 -20 6 0 10 -9 10 -20 0 -11 5 -20 10 -20
18 0 11 -32 -12 -51 -11 -11 -18 -22 -15 -26 4 -3 15 4 26 15 23 27 31 28 31
2 0 -11 5 -20 10 -20 6 0 10 -9 10 -20 0 -13 -7 -20 -20 -20 -11 0 -20 5 -20
10 0 6 -9 10 -20 10 -11 0 -20 -4 -20 -10 0 -5 9 -10 20 -10 11 0 20 -4 20
-10 0 -5 9 -10 20 -10 11 0 20 -4 20 -10 0 -5 9 -10 20 -10 13 0 20 7 20 20 0
11 -4 20 -10 20 -5 0 -10 9 -10 20 0 11 -4 20 -10 20 -5 0 -10 9 -10 19 0 11
-6 22 -12 25 -10 5 -10 7 0 12 6 3 12 13 12 21 0 9 10 24 22 34 11 11 18 22
15 25 -4 4 -20 -7 -36 -25 -34 -36 -41 -38 -41 -11 0 11 -4 20 -10 20 -5 0
-10 9 -10 20 0 11 -4 20 -10 20 -5 0 -10 -9 -10 -20z m100 -190 c0 -5 -4 -10
-10 -10 -5 0 -10 5 -10 10 0 6 5 10 10 10 6 0 10 -4 10 -10z"/>
<path d="M640 860 c0 -11 5 -20 10 -20 6 0 10 9 10 20 0 11 -4 20 -10 20 -5 0
-10 -9 -10 -20z"/>
<path d="M780 520 c0 -22 5 -40 10 -40 6 0 10 18 10 40 0 22 -4 40 -10 40 -5
0 -10 -18 -10 -40z"/>
</g>
</svg>
